<svg width="1800" height="1800" viewBox="0 0 410.5 120" class="css-1j8o68f"><defs id="SvgjsDefs1101"></defs><g id="SvgjsG1102" featurekey="symbolContainer" transform="matrix(1,0,0,1,0,0)" fill="#0d7377">    <rect width="128" height="120"></rect></g><g id="SvgjsG1103" featurekey="monogramFeature-0" transform="matrix(2.101344891511987,0,0,2.101344891511987,20.504321291003873,-21.563400310709113)" fill="#ffffff"><path d="M40.02 17.4 c0.84 0 1.38 0.42 1.38 1.14 l0 0.24 c0 1.68 -2.22 1.98 -3.96 5.16 l-10.38 18.6 l0 10.92 c0 2.76 2.64 3.48 2.64 5.16 l0 0.24 c0 0.72 -0.54 1.14 -1.44 1.14 l-13.2 0 c-0.84 0 -1.44 -0.42 -1.44 -1.14 l0 -0.24 c0 -1.68 2.4 -2.4 2.4 -5.16 l0 -9.96 l-12.12 -19.56 c-1.86 -2.94 -4.14 -3.48 -4.14 -5.16 l0 -0.24 c0 -0.72 0.6 -1.14 1.44 -1.14 l16.26 0 c0.84 0 1.44 0.42 1.44 1.14 l0 0.24 c0 1.68 -4.02 2.58 -2.58 5.16 l7.98 14.4 l7.92 -14.4 c1.5 -2.76 -2.58 -3.48 -2.58 -5.16 l0 -0.24 c0 -0.72 0.6 -1.14 1.44 -1.14 l8.94 0 z"></path></g><g id="SvgjsG1104" featurekey="nameFeature-0" transform="matrix(2.2684063249600976,0,0,2.2684063249600976,145.73159151171905,-6.585722734262184)" fill="#323232"><path d="M18.92 19.16 l3.28 0 l-12.64 28.44 l-3.28 0 l3.72 -8.28 l-9 -20.16 l3.28 0 l7.32 16.56 z M35.239999999999995 18.84 c4.72 0 10.68 3.6 10.68 10.8 s-5.96 10.76 -10.68 10.76 s-10.64 -3.56 -10.64 -10.76 s5.92 -10.8 10.64 -10.8 z M35.239999999999995 21.76 c-3.36 0 -7.44 2.6 -7.44 7.88 c0 5.24 4.08 7.84 7.44 7.84 c3.4 0 7.48 -2.6 7.48 -7.84 c0 -5.28 -4.08 -7.88 -7.48 -7.88 z M57.08 40.32 c-4.04 0 -7.96 -2.6 -7.96 -9.04 l0 -12.08 l3.28 0 l0 12 c0 4.36 2.28 6.24 5.36 6.24 c3.72 0 6.28 -3.44 6.8 -5.96 l0 -12.28 l3.28 0 l0 20.8 l-3.28 0 l0 -4.84 c-0.4 1.44 -2.92 5.16 -7.48 5.16 z M83.16 18.88 c4.04 0 7.96 2.6 7.96 9.04 l0 12.08 l-3.28 0 l0 -12 c0 -4.36 -2.28 -6.24 -5.36 -6.24 c-3.72 0 -6.28 3.44 -6.8 5.96 l0 12.28 l-3.28 0 l0 -20.8 l3.28 0 l0 4.84 c0.4 -1.44 2.92 -5.16 7.48 -5.16 z M98.48 11.719999999999999 l0 2.92 l-3.28 0 l0 -2.92 l3.28 0 z M98.48 19.2 l0 20.8 l-3.28 0 l0 -20.8 l3.28 0 z M113.16000000000001 24.240000000000002 c-0.8 -1.68 -2.12 -2.72 -4.04 -2.72 c-2 0 -3.36 1.2 -3.36 2.8 c0 1.44 0.76 2.48 2.84 3.24 l2.08 0.72 c3.48 1.24 6.04 2.52 6.04 6.16 c0 3.96 -3.84 6 -7.4 6 c-3.6 0 -6.8 -2.08 -7.56 -5.56 l2.64 -0.8 c0.64 2.28 2.52 3.68 4.92 3.68 c2.08 0 4.16 -1.2 4.16 -3.28 c0 -1.8 -1.24 -2.76 -3.4 -3.52 l-2.32 -0.84 c-3.64 -1.28 -5.2 -3.32 -5.2 -5.8 c0 -3.24 2.88 -5.48 6.48 -5.48 c3.36 0 5.72 1.84 6.84 4.6 z"></path></g></svg>